# xmcd
# 
# Track frame offsets:
#     183
#     13173
#     39698
#     64150
#     73875
#     86660
#     98158
#     115263
#     127165
#     152218
#     192888
#     212420
#     236900
#     268013
# 
# Disc length: 4178
# 
# Revision: 31
# Processed by: cddbd v1.5.2PL0 Copyright (c) Steve Scherf et al.
# Submitted via: fre:ac v1.0.17
# 
DISCID=d110500e
DTITLE=Woodstock / Woodstock Disc 1
DYEAR=1970
DGENRE=Rock
TTITLE0=John Sebastian / I had a dream
TTITLE1=Canned Heat / Going up the country
TTITLE2=Richie Havens / Freedom (Motherless child)
TTITLE3=Country Joe and the Fish / Rock & soul music
TTITLE4=Arlo Guthrie / Coming into Los Angeles
TTITLE5=Sha Na Na / At the hop
TTITLE6=Country Joe McDonald / Fish cheer / I-feel-like-I'm-fixin'-to-die rag
TTITLE7=Joan Baez; Jeffrey Shurtleff / Drug store truck drivin' man
TTITLE8=Joan Baez / Joe Hill
TTITLE9=Crosby, Stills and Nash / Suite: Judy blue eyes
TTITLE10=Crosby, Stills and Nash / Sea of madness
TTITLE11=Crosby, Stills and Nash / Wooden ships
TTITLE12=The Who / We're not gonna take it
TTITLE13=Joe Cocker / With a little help from my friends
EXTD=YEAR: 1970
EXTT0=
EXTT1=
EXTT2=
EXTT3=
EXTT4=
EXTT5=
EXTT6=
EXTT7=
EXTT8=
EXTT9=
EXTT10=
EXTT11=
EXTT12=
EXTT13=
PLAYORDER=
.
